<?xml version="1.0" encoding="UTF-8"?>
<!-- Generator: Adobe Illustrator 22.1.0, SVG Export Plug-In . SVG Version: 6.00 Build 0)  -->
<svg width="520" height="280" version="1.1" viewBox="0 0 520 280" xml:space="preserve" xmlns="http://www.w3.org/2000/svg" xmlns:xlink="http://www.w3.org/1999/xlink">
	<style type="text/css">
	.ccisast0{fill-rule:evenodd;clip-rule:evenodd;fill:#FFFFFF;}
	</style>
	<g stroke-width="6.1766">
		<path class="ccisast0" d="m213.41 77.242c-3.0883 0.61766-6.1766 0.61766-9.2649 1.2353-2.4706-13.589-7.4119-25.942-14.824-35.824-7.4119-9.2649-17.294-16.677-33.354-16.677-15.441 0-25.324 8.6472-32.118 17.912-7.4119 9.8825-12.353 21.618-16.059 33.971 16.059 6.7943 28.412 16.677 36.442 31.501-2.4706 1.2353-4.9413 3.0883-8.0296 4.3236-7.4119-11.736-16.677-21-30.883-26.559-8.0296 30.883-8.6472 77.207 1.2353 106.24 17.912-7.4119 29.648-20.383 34.589-40.148 3.0883 0.61766 6.1766 1.2353 9.2649 1.853-5.5589 23.471-19.765 38.295-40.766 46.942 7.4119 19.147 16.059 37.677 32.118 48.177 5.5589 3.706 12.971 6.1766 21 4.3236 12.971-3.706 21.618-14.824 28.412-25.324 6.7942-11.118 12.353-23.471 15.441-38.295 3.0883 0 6.1766 0.61766 9.2649 0.61766-3.0883 17.294-9.2649 31.501-17.912 44.471-7.4119 11.118-18.53 24.706-33.971 27.795-19.147 4.3236-32.736-8.6472-41.383-19.147-9.2649-11.736-16.677-24.706-21.618-40.148-23.471 5.5589-44.471-2.4706-56.825-13.589-13.589-11.118-23.471-26.559-24.089-49.413-0.61766-11.118 2.4706-22.236 6.7943-30.265 8.0296-16.677 21-28.412 39.53-34.589 9.2649-3.0883 21-4.3236 32.736-1.853 4.3236-14.206 9.8825-27.795 18.53-38.913 8.6472-10.5 20.383-19.765 37.677-20.383 19.147-1.2353 32.118 8.6472 40.766 19.147 8.6472 12.353 14.206 26.559 17.294 42.618zm-171.09 27.177c-8.6472 10.5-15.441 27.177-12.971 45.089 2.4706 16.677 11.118 28.412 22.236 37.06 11.118 8.0296 26.559 14.206 46.324 10.5-9.8826-30.265-9.2649-78.443-1.2353-111.8-24.706-3.706-43.236 6.1766-54.354 19.147z" />
		<path class="ccisast0" d="m488.88 134.68h9.8826v9.2649h-17.294c-0.61766-3.706-1.853-6.7942-2.4706-9.8826h-19.147c-1.853 0-4.9413-0.61766-6.1766 0s-3.0883 4.3236-4.3236 5.5589c-1.2353 1.853-2.4706 3.706-3.706 5.5589h-21v-9.2649h16.059c12.353-16.059 23.471-33.354 35.207-50.03 4.9413 15.441 8.6472 32.736 12.971 48.795zm-28.412-9.8826h16.677c-1.2353-6.1766-2.4706-12.353-4.9413-17.294-3.706 5.5589-8.6472 11.118-11.736 17.294z" />
		<path class="ccisast0" d="m212.79 88.36v8.6472c0 0.61766-2.4706 0-3.706 0.61766v37.677c1.853 0.61766 4.9413 0 6.7942 0v9.2649h-22.853v-9.2649c1.853 0.61766 4.3236 0 6.1766 0 0.61766-12.353 0-25.324 0-37.677-0.61766-0.61766-2.4706 0-3.0883-0.61766v-9.2649c6.1766 0.61766 11.736 0.61766 16.677 0.61766z" />
		<path class="ccisast0" d="m384.5 88.977h16.677c1.853 0 4.3236-0.61766 5.5589 0 1.853 0.61766 3.706 4.9413 4.9413 6.1766 1.853 2.4706 3.0883 4.3236 4.3236 6.7943-2.4706 1.2353-4.9413 3.706-7.4119 4.9413-1.853-3.0883-4.3236-6.1766-6.1766-9.2649h-12.353c-1.2353 1.2353-3.706 3.0883-2.4706 5.5589 0.61766 1.2353 3.706 2.4706 5.5589 3.0883 5.5589 2.4706 11.736 5.5589 16.677 8.0296-0.61766 6.1766 1.2353 12.971-0.61766 17.294-1.853 4.9413-8.0296 9.2649-10.5 12.971h-10.5c-3.706 0-7.4119 0.61766-10.5 0-1.853-0.61766-4.3236-3.706-5.5589-4.9413-5.5589-5.5589-10.5-11.118-15.441-16.059-5.5589 6.7943-10.5 14.206-16.059 20.383h-100.06v-9.2649h83.384c3.706 0 9.2649 0.61766 11.736 0 1.853-0.61766 3.706-4.3236 4.9413-6.1766 4.9413-6.7942 9.2649-12.353 14.206-19.147 6.7942 6.7942 15.441 14.824 22.853 22.236 1.2353 1.2353 2.4706 3.0883 3.0883 3.0883 1.853 0.61766 4.9413 0 6.7942 0s4.9413 0.61766 6.7943 0c1.2353-0.61766 2.4706-2.4706 3.0883-3.706 1.2353-1.2353 2.4706-2.4706 3.0883-3.706v-8.0296c-7.4119-3.706-14.824-7.4119-22.236-11.118-2.4706-9.2649 2.4706-13.589 6.1766-19.147z" />
		<path class="ccisast0" d="m193.02 158.16h306.98v9.2649h-306.98v-9.2649c-0.61766 0.61766-0.61766 0 0 0z" />
	</g>
</svg>