<?xml version="1.0" encoding="UTF-8"?>
<!-- Generator: Adobe Illustrator 22.1.0, SVG Export Plug-In . SVG Version: 6.00 Build 0)  -->
<svg width="248" height="38" version="1.1" viewBox="0 0 248 38" xml:space="preserve" xmlns="http://www.w3.org/2000/svg" xmlns:xlink="http://www.w3.org/1999/xlink">
<style type="text/css">
	.st0{clip-path:url(#SVGID_2_);}
	.st1{fill:url(#SVGID_3_);}
	.st2{fill:url(#SVGID_4_);}
	.st3{opacity:0.35;fill:url(#SVGID_5_);}
	.st4{opacity:0.35;fill:url(#SVGID_6_);}
	.st5{fill:url(#SVGID_7_);}
	.st6{opacity:0.12;}
	.st7{fill:#D970EF;}
	.st8{opacity:0.22;}
	.st9{fill:#FFFFFF;}
	.st10{opacity:0.35;}
	.st11{fill:none;stroke:#FFFFFF;stroke-width:1.986;stroke-linecap:round;stroke-linejoin:round;}
	.st12{fill:url(#SVGID_8_);}
	.st13{fill:url(#SVGID_9_);}
	.st14{fill:url(#SVGID_10_);}
	.st15{fill:url(#SVGID_11_);}
	.st16{fill:url(#SVGID_12_);}
	.st17{fill:url(#SVGID_13_);}
	.st18{fill:url(#SVGID_14_);}
	.st19{fill:url(#SVGID_15_);}
	.st20{fill:url(#SVGID_16_);}
	.st21{fill:url(#SVGID_17_);}
	.st22{fill:url(#SVGID_18_);}
	.st23{fill:url(#SVGID_19_);}
	.st24{fill:url(#SVGID_20_);}
	.st25{fill:url(#SVGID_21_);}
	.st26{fill:url(#SVGID_22_);}
	.st27{fill:url(#SVGID_23_);}
	.st28{fill:url(#SVGID_24_);}
	.st29{fill:url(#SVGID_25_);}
	.st30{fill:url(#SVGID_26_);}
	.st31{fill:url(#SVGID_27_);}
	.st32{fill:url(#SVGID_28_);}
	.st33{fill:url(#SVGID_29_);}
	.st34{fill:url(#SVGID_30_);}
	.st35{fill:url(#SVGID_31_);}
	.st36{fill:url(#SVGID_32_);}
	.st37{fill:url(#SVGID_33_);}
	.st38{fill:url(#SVGID_34_);}
	.st39{fill:url(#SVGID_35_);}
	.st40{fill:url(#SVGID_36_);}
	.st41{fill:url(#SVGID_37_);}
	.st42{fill:url(#SVGID_38_);}
	.st43{fill:url(#SVGID_39_);}
	.st44{fill:url(#SVGID_40_);}
	.st45{fill:url(#SVGID_41_);}
	.st46{fill:url(#SVGID_42_);}
	.st47{fill:url(#SVGID_43_);}
	.st48{fill:url(#SVGID_44_);}
	.st49{fill:url(#SVGID_45_);}
	.st50{fill:url(#SVGID_46_);}
	.st51{fill:url(#SVGID_47_);}
	.st52{fill:url(#SVGID_48_);}
	.st53{fill:#231815;}
	.st54{fill:#B2823D;}
	.st55{fill:url(#SVGID_49_);}
	.st56{fill:#727171;}
	.st57{fill:url(#SVGID_50_);}
</style>

	<defs>
		<rect id="SVGID_1_" x="-10.5" y="173.4" width="1941.5" height="827.5"/>
	
	
		
		
			
			
		
		
	
	
	
		
		
	
	
	
	
		
			
			
		
		
			
		
	

	
		
	
	
		
			
			
			
			
			
			
			
			
			
			
		
	

	
		
			
				
				
				
				
				
				
				
			
		
	
</defs>
	<clipPath id="SVGID_2_">
		<use width="100%" height="100%" xlink:href="#SVGID_1_"/>
	</clipPath>
	




<g transform="translate(-3.25,-2.9)"><path class="st9" d="m39 29.8h-1.8c-5.3 0-10.7-0.9-16.5-2.8-3.1-1-13.1-4.5-14.6-9.1-0.4-1.2-0.2-2.4 0.6-3.5 1.6-2.1 5.1-2.2 7.7-2.1s5.1 0.5 7.6 0.9l0.3 0.1c3.9 0.6 7.3 1.5 10.4 2.6 4 1.4 7.5 3.2 10.3 5.5 3.2 2.5 3.2 4.5 2.6 5.7-1.3 2.4-4.2 2.7-6.6 2.7zm-25.8-15.7c-1.6 0-4.2 0.2-5.1 1.5-0.5 0.6-0.6 1.2-0.4 1.9 1 3.2 8.9 6.5 13.5 7.9 5.6 1.8 10.8 2.7 15.9 2.7h0.9c2.3 0 5.1 0.1 6-1.8 0.6-1.2-1.1-2.8-2.1-3.6-2.6-2.1-5.9-3.8-9.8-5.2-3-1-6.3-1.9-10.1-2.5l-0.3-0.1c-2.4-0.4-4.9-0.8-7.3-0.9-0.4 0.1-0.7 0.1-1.2 0.1z"/><path class="st9" d="m27.9 37.7 4.5-3.1c4.6-3.1 7.7-8 8.4-13.5 0-0.2 0-0.3 0.1-0.5l1.5-13.4-4.8-0.7c-7.1-1.2-14.4-1.2-21.5 0l-4.7 0.8 1.6 13.6c0 0.4 0.1 0.8 0.2 1.1 0.9 5.1 3.9 9.6 8.1 12.6l4.6 3.2c0.5 0.5 1.4 0.5 2-0.1z"/><path class="st9" d="m26.9 38.4c-0.4 0-0.9-0.2-1.2-0.5l-4.6-3.2c-4.3-3-7.3-7.7-8.2-12.7-0.1-0.4-0.1-0.8-0.2-1.1l-1.7-13.8 5-0.8c7.2-1.2 14.4-1.2 21.6 0l5 0.8-1.5 13.7c0 0.2 0 0.3-0.1 0.5-0.7 5.5-3.8 10.5-8.5 13.7l-4.5 3.1c-0.3 0.2-0.7 0.3-1.1 0.3zm-15.2-30.9 1.6 13.3c0 0.4 0.1 0.7 0.2 1.1 0.9 4.9 3.8 9.4 8 12.4l4.6 3.2c0.5 0.5 1.2 0.5 1.6 0l4.5-3.1c4.5-3.1 7.6-8 8.3-13.3 0-0.2 0-0.3 0.1-0.5l1.5-13.1-4.5-0.7c-7.1-1.1-14.3-1.1-21.4 0z"/><path class="st53" d="m26.9 36.9c-0.4 0-0.9-0.2-1.2-0.5l-4.1-2.8c-3.9-2.8-6.7-7-7.5-11.6-0.1-0.3-0.1-0.7-0.2-1l-1.5-12.6 4.7-0.8c6.5-1 13-1 19.5 0l4.7 0.8-1.4 12.4c0 0.2 0 0.3-0.1 0.5-0.7 5-3.5 9.5-7.7 12.4l-4.1 2.8c-0.3 0.3-0.7 0.4-1.1 0.4zm-13.5-27.8 1.4 11.8c0 0.3 0.1 0.7 0.1 1 0.8 4.4 3.4 8.4 7.1 11l4.1 2.9c0.4 0.4 0.9 0.4 1.2 0.1h0.1l4.1-2.8c4.1-2.8 6.7-7.1 7.4-11.8 0-0.1 0-0.3 0.1-0.4l1.3-11.6-3.8-0.8c-6.4-1-12.8-1-19.2 0z"/><path class="st53" d="m14 16.1s9.5 8.8 24.5 8.7c-0.6 0.1-6.9 10-8.3 9.6-7-1.9-12.2-5.5-14.3-8.1-1.7-2.1-1.1-3.3-1.1-3.3z"/><path class="st53" d="m30.2 17.6c0-1.8-1.5-3.2-3.3-3.2s-3.3 1.4-3.3 3.2c0 1.2 0.7 2.3 1.8 2.8l-1.6 6.5h6.3l-1.5-6.6c1-0.6 1.6-1.6 1.6-2.7z"/><path class="st9" d="m30.4 27.1h-7l1.6-6.6c-1.1-0.6-1.7-1.7-1.7-3 0-1.9 1.6-3.5 3.6-3.5s3.6 1.6 3.6 3.5c0 1.1-0.6 2.2-1.6 2.9zm-6.3-0.6h5.5l-1.4-6.4 0.2-0.1c0.9-0.5 1.5-1.5 1.5-2.5 0-1.6-1.4-2.9-3-2.9-1.7 0-3 1.3-3 2.9 0 1.1 0.6 2 1.6 2.6l0.2 0.1z"/><path class="st53" d="m17.2 8 22.6 9.8 1-9.1s-12.9-2.4-23.6-0.7z"/><path class="st9" d="m35.2 30c-8.4 0-14.5-1.7-22.1-6l0.9-1.5c7.7 4.4 13.7 5.9 22.2 5.8v1.7z"/><circle class="st53" transform="rotate(-22.395)" cx="26.495" cy="40.456" r="7.4002"/><path class="st9" d="m39.9 35.3c-4.4 0-8-3.6-8-8s3.6-8 8-8 8 3.6 8 8-3.6 8-8 8zm0-14.9c-3.8 0-6.9 3.1-6.9 6.9s3.1 6.9 6.9 6.9 6.9-3.1 6.9-6.9-3-6.9-6.9-6.9z"/><path class="st9" d="m40.4 22.6v0.5c0.6 0 1.2 0.1 1.7 0.2s0.9 0.3 1.2 0.5 0.5 0.3 0.6 0.5c0.2 0.2 0.2 0.3 0.2 0.5s-0.1 0.3-0.3 0.4c-0.2 0.2-0.5 0.3-0.8 0.3-0.6 0-1-0.2-1.2-0.5-0.2-0.4-0.7-0.7-1.5-0.8v2.1c0.7 0.1 1.3 0.2 1.8 0.3 0.4 0.1 0.8 0.2 1.2 0.4s0.7 0.4 0.9 0.6 0.3 0.5 0.3 0.8c0 0.4-0.1 0.7-0.5 1.1-0.3 0.3-0.8 0.6-1.4 0.8s-1.4 0.4-2.2 0.4v1.3c0 0.2 0 0.3-0.1 0.4s-0.2 0.1-0.5 0.1c-0.2 0-0.4 0-0.5-0.1s-0.1-0.2-0.1-0.3v-1.4c-0.7 0-1.3-0.1-1.8-0.2s-1-0.3-1.3-0.5c-0.4-0.2-0.6-0.4-0.8-0.6s-0.3-0.4-0.3-0.7c0-0.2 0.1-0.3 0.3-0.4s0.5-0.2 0.8-0.2 0.5 0 0.7 0.1 0.3 0.2 0.4 0.3c0.2 0.3 0.3 0.5 0.4 0.6s0.3 0.3 0.6 0.4c0.2 0.1 0.6 0.2 1 0.3l-0.1-2.3c-0.8-0.1-1.5-0.2-2-0.4-0.5-0.1-1-0.3-1.3-0.6s-0.5-0.6-0.5-1.1c0-0.6 0.3-1.1 1-1.4 0.6-0.4 1.6-0.6 2.8-0.7v-0.5c0-0.3 0.2-0.4 0.6-0.4 0.5-0.2 0.7 0 0.7 0.2zm-1.1 3.5v-1.9c-0.5 0.1-0.9 0.2-1.2 0.4s-0.4 0.4-0.4 0.6c0 0.3 0.1 0.5 0.4 0.6s0.7 0.2 1.2 0.3zm1.2 1.5v2.2c0.6-0.1 1.1-0.2 1.4-0.4s0.5-0.5 0.5-0.7c0-0.3-0.2-0.5-0.5-0.7s-0.8-0.3-1.4-0.4z"/><path class="st9" d="m59.5 18.2c-1.2 1.3-2.4 2.2-3.8 2.9v-3.1c2.1-1.3 3.9-4.1 5.7-8.2h10.8c0.8 0 1.6 0.5 2.5 1.6 1.6 2.4 3.2 4.3 4.6 5.7v4c-0.6-0.4-1.6-1.4-2.8-2.9h-7.7v3.8h9.3v2.5h-9.3v6h9.9v2.6h-22.3v-2.6h9.7v-6h-9v-2.6h9v-3.8h-6.6zm-0.4 7.2h2.5c0.4 1.5 0.8 2.9 1.2 4.2h-2.6c-0.3-1.1-0.7-2.5-1.1-4.2zm15.4-9.8c-0.5-0.6-1-1.3-1.5-2-0.6-0.9-1.4-1.4-2.4-1.4h-7.3c-0.6 1.3-1.2 2.4-1.8 3.3h13zm-0.9 9.8h2.6c-0.3 1.6-0.6 3-1 4.2h-2.6c0.4-1.4 0.7-2.8 1-4.2z"/><path class="st9" d="m83.9 9.9h12.8v2.3h-12.8zm9.9 10c1.4 0.3 2.3 1 2.7 2.3 0.2 0.9 0.3 2.5 0.4 4.9 0 1.5 0 2.7-0.1 3.6-0.2 1.9-0.9 2.9-2 3-0.9 0-1.7-0.1-2.2-0.2v-2.2c0.4 0.1 0.7 0.2 1.1 0.2 0.3 0 0.5-0.4 0.6-1 0.1-1 0.1-2.1 0.1-3.4 0-1.6-0.1-2.9-0.2-3.8-0.1-0.8-0.5-1.2-1.2-1.2h-6.3v11.6h-2.5v-13.8zm0.1-6.6c0.8 0.1 1.4 0.3 1.8 0.8s0.6 1.2 0.6 2.2c0 0.7-0.1 1.3-0.4 1.8-0.4 0.6-0.8 0.9-1.4 0.9h-9.7v-5.7zm-6.6 3.8h6c0.3 0 0.4-0.4 0.4-1.1 0-0.6-0.3-0.9-0.8-0.9h-5.6zm0.2 8.6h0.5c-0.1-0.9-0.3-1.8-0.4-2.8h2.1c0.1 0.9 0.2 1.8 0.4 2.8h0.6c0.1-0.9 0.3-1.9 0.4-2.8h2.1c-0.1 1-0.3 1.9-0.4 2.8h0.9v2h-2v5h-2.4v-5h-1.8zm16.4-11.9c1.2 0.1 2.2 0.7 2.8 1.9 0.6 1.1 1 2.7 1 4.7 0 1.9-0.3 3.4-1 4.4-0.6 1-1.5 1.6-2.7 1.7h-0.4v4.5h1.1c0.3 0 0.4-0.2 0.4-0.4v-2.8h2.2v3.7c0 0.6-0.2 1-0.6 1.4-0.3 0.4-0.8 0.6-1.5 0.6h-7.6v-2.5h3.6v-4.5h-3.6v-12.7h3.7v-4.4h2.4v4.4zm-3.8 10.4h1.2v-8.2h-1.2zm3.5-8.1v8.1c0.5-0.1 0.9-0.5 1.2-1.1 0.3-0.7 0.4-1.5 0.4-2.6 0-1.3-0.2-2.3-0.5-3.1-0.2-0.7-0.6-1.1-1.1-1.3z"/><path class="st9" d="m116.4 14.5h2.7c-1.1 3-3.3 4.9-6.6 5.5v-2.5c2-0.6 3.2-1.6 3.9-3zm-3.8-4.9c2.3 0.2 4.5 0.6 6.6 1.3v2.7c-2-0.9-4.2-1.4-6.6-1.5zm16 10.4c4.3 0 6.5 1.9 6.6 5.8 0 2.3-0.7 4-2.1 4.9 0.3 1.1 0.7 2.2 1.2 3.3h-3.3c-0.2-0.7-0.4-1.5-0.7-2.3-0.3 0-0.5 0.1-0.7 0.1h-11.5c-0.3 0.9-0.5 1.6-0.8 2.2h-3c0.3-0.8 0.6-1.5 0.8-2.2h-1v-11.8zm-11.8 3.3h14.9c-0.7-0.8-1.7-1.1-3.1-1.1h-11.9v1.1zm0 3h15.6v-1.1h-15.6zm0 3.1h12.5c1.1-0.1 2-0.5 2.5-1.2h-15zm5.2-20.3h2.5l-0.3 1.2h7.8c2.2 0.3 3.3 1.2 3.3 2.9 0 0.8-0.1 1.7-0.4 2.6h-2.6c0.3-1 0.5-1.8 0.5-2.6 0-0.4-0.3-0.6-0.8-0.6h-3.4c0 0.3 0 0.5-0.1 0.7 0.4 2.5 2.8 3.9 7.1 4.1v2.6c-4.1-0.4-6.8-1.7-8.2-3.8-1.4 1.9-3.9 3-7.6 3.4v-2.4c4.1-0.5 6.2-2 6.2-4.6h-2.7c-0.9 1.8-2 3-3.4 3.6v-2.8c1-0.7 1.7-2.1 2.1-4.3z"/><path class="st9" d="m140.9 19h7.5c1.1-1.4 2.3-2.8 3.5-4.1h3.6c-1.4 1.5-2.6 2.9-3.6 4.1h11.8v2.5h-4.9c-0.3 2.7-1.2 4.9-2.7 6.5 2.6 0.9 5.1 1.9 7.4 2.9v3.3c-3.3-1.5-6.6-2.9-9.9-4.2-2.9 1.9-7.3 2.9-13.2 3.1v-2.7c4.1-0.2 7.3-0.8 9.6-1.7-1.3-0.5-2.6-0.9-3.9-1.4-1.2-0.4-1.8-1.1-1.8-2.3 0-0.5 0.7-1.6 2.1-3.4h-5.5zm9.9-9.9h2.8v2.1h6.7c2.3 0.3 3.5 1.2 3.5 2.8-0.1 1.7-0.2 3-0.6 3.8h-2.8c0.4-1.7 0.6-2.7 0.6-3.3 0-0.7-0.5-1-1.5-1h-15.8v4.2h-2.7v-6.6h9.6v-2zm2.3 17.8c1.6-1.3 2.6-3.1 2.9-5.4h-6.2c-1.3 1.6-2 2.6-2.1 3.2 0 0.3 0.2 0.5 0.6 0.7 1.7 0.5 3.3 1 4.8 1.5z"/><path class="st9" d="m169.4 9.7h8.9v2.6h-3.3c-0.4 1.7-1 3.3-1.8 4.8h1.5c1.6 0 2.6 0.8 3 2.3 0.3 0.9 0.4 2.6 0.4 5 0 1.7-0.1 3.2-0.2 4.6-0.1 2.3-1 3.4-2.5 3.4h-4.7v-11.3c-0.7 0.8-1.4 1.6-2.2 2.3v-3.8c1.7-1.8 3-4.2 3.8-7.3h-3v-2.6zm3.6 20.2h2.2c0.3 0 0.5-0.3 0.5-0.9 0.1-1.2 0.1-2.7 0.1-4.4 0-1.9 0-3.3-0.1-4.1 0-0.6-0.2-1-0.5-1h-2.1v10.4zm6.2-20.2h13v2.5h-2.1v7.5h2.3v2.6h-2.3v11.5h-2.6v-11.5h-3.8c-0.2 2.8-0.6 4.9-1.2 6.3-1 2.6-2.1 4.4-3.3 5.4v-3.8c0.6-1 1-2.4 1.4-4.2 0.2-1 0.4-2.3 0.5-3.8h-2.4v-2.6h2.5v-7.5h-2.2v-2.4zm4.6 2.6v7.4h3.7v-7.5h-3.7z"/><path class="st9" d="m204.8 15.7v2.1c-2.4 0.3-4.9 0.5-7.5 0.7v-2.2c2.4-0.1 4.9-0.3 7.5-0.6zm-7.4-2.9c2.8 0 5.3 0.2 7.4 0.4v1.9c-2.4-0.2-4.9-0.3-7.4-0.3zm6.4-3.2c3.1 0 4.6 2.1 4.6 6.3 0 3.4-1.2 5.3-3.6 5.7-1.9 0-3.4-0.1-4.7-0.2v-2.3c1.2 0.1 2.5 0.2 4 0.2 1.2-0.1 1.8-1.1 1.8-2.9 0-2.1-0.2-3.3-0.4-3.7-0.3-0.5-0.8-0.7-1.6-0.8h-6v-2.3zm3.8 11.2h3.2c-0.4 0.6-0.8 1.1-1.4 1.7h3.8c4.3 0 6.5 1.8 6.6 5.3 0 3.4-1.9 5.3-5.6 5.5h-15.7v-10.8h7.6c0.8-0.6 1.2-1.2 1.5-1.7zm9.4 5.8c-0.5-1.2-1.7-1.7-3.6-1.7h-11.9v1.7zm-15.6 2.4v1.7h12.6c1.6-0.1 2.6-0.7 3-1.7zm7.7-16.3c2.8 0.1 5.3 0.2 7.4 0.5v1.9c-2.4-0.2-4.9-0.3-7.4-0.3zm7.5 3v2.2c-2.4 0.3-4.9 0.6-7.5 0.9v-2.2c2.4-0.2 4.9-0.5 7.5-0.9zm-0.9-6.1c3.1 0 4.7 2.1 4.7 6.3 0 3.4-1.2 5.3-3.7 5.7-1.9 0-3.5-0.1-4.8-0.2v-2.2c1.2 0.1 2.6 0.2 4.1 0.2 1.2-0.1 1.8-1.1 1.8-3 0-2.1-0.2-3.3-0.4-3.7-0.3-0.5-0.8-0.7-1.6-0.8h-6.2v-2.3z"/><path class="st9" d="m225.5 18.1h19.8c2.2 0.2 3.3 1 3.3 2.5-0.1 1.5-0.2 2.5-0.5 3.3h-2.5c-0.1 1.5-0.9 2.3-2.6 2.5h-5.8c-0.1 0.3-0.2 0.7-0.3 0.9h6.9c2.2 0.1 3.3 1.1 3.3 2.9 0 2-0.9 3-2.8 3.2h-16.7v-6.2h6.7l0.3-0.9h-5.7v-5.2h13.6c2 0.1 3 0.9 3 2.4 0.3-1.3 0.5-2.1 0.5-2.5 0-0.6-0.5-0.9-1.4-0.9h-16.6v3.6h-2.5zm4.5-9h2.4v2.6c0.5 2.4 1.9 3.6 4.3 3.6v2.4c-2.4-0.1-4.2-1-5.2-2.7-1 1.5-2.7 2.4-5 2.7v-2.4c2.4-0.4 3.7-1.6 3.7-3.7zm-3.6 0.6h2.2c0.1 1.3 0.2 2.5 0.3 3.6h-2.2c-0.1-1.1-0.2-2.3-0.3-3.6zm3.8 21.5h13.4c0.6-0.1 0.9-0.4 0.9-0.9 0-0.6-0.4-0.9-1.1-0.9h-13.2zm1.1-6.7h11.1c0.6-0.1 0.9-0.3 0.9-0.7s-0.3-0.7-1-0.7h-10.9v1.4zm2.5-14.8h2.2c0 1.4-0.1 2.6-0.3 3.6h-2.2zm7.4-0.7h2.4v2.8c0.6 2.4 1.9 3.6 4.2 3.6v2.4c-2.4-0.1-4.2-1.1-5.2-2.8-1 1.4-2.7 2.2-5 2.6v-2.4c2.5-0.4 3.8-1.7 3.8-3.8zm-3.6 0.6h2.1c0.1 1.3 0.2 2.5 0.4 3.8h-2.2c-0.1-1.2-0.2-2.4-0.3-3.8zm7.5 0h2.2c-0.1 1.4-0.3 2.6-0.6 3.6h-2.3c0.3-1.2 0.5-2.4 0.7-3.6z"/></g>
</svg>
